<svg width="24" height="24" viewBox="0 0 24 24" fill="none" xmlns="http://www.w3.org/2000/svg">
<path d="M24 9.84003C21.6407 9.84445 19.3394 9.19997 17.4214 7.99766V16.3797C17.4209 17.9321 16.8787 19.4474 15.8674 20.7228C14.8561 21.9983 13.4239 22.9731 11.7623 23.5169C10.1007 24.0608 8.28899 24.1477 6.56943 23.7661C4.84987 23.3845 3.30445 22.5525 2.13985 21.3815C0.975258 20.2104 0.247015 18.7561 0.0525185 17.2131C-0.141977 15.6701 0.206547 14.1118 1.05148 12.7468C1.89641 11.3818 3.19747 10.2751 4.78064 9.57468C6.36382 8.87428 8.15364 8.61357 9.91072 8.82743V13.0419C9.10729 12.8206 8.24449 12.8271 7.44552 13.0604C6.64654 13.2938 5.95225 13.742 5.46177 14.3413C4.97128 14.9405 4.7097 15.66 4.71435 16.3971C4.71901 17.1341 4.98967 17.8511 5.48769 18.4455C5.98571 19.04 6.68563 19.4815 7.4875 19.7071C8.28938 19.9327 9.1522 19.9309 9.95279 19.7018C10.7534 19.4727 11.4508 19.0281 11.9454 18.4315C12.4401 17.8349 12.7067 17.1168 12.7071 16.3797V0H17.4214C17.4188 0.348908 17.4528 0.697289 17.5232 1.04073C17.6872 1.80627 18.0278 2.53452 18.5243 3.18097C19.0207 3.82741 19.6626 4.37847 20.4107 4.80047C21.4756 5.41593 22.7238 5.74363 24 5.74275V9.84003Z" fill="white"/>
</svg>
