<svg width="50" height="45" viewBox="0 0 50 45" fill="none" xmlns="http://www.w3.org/2000/svg">
<path d="M48 43L40.6888 35.5605M40.6888 35.5605C43.0149 33.1934 44.4538 29.9232 44.4538 26.3112C44.4538 19.087 38.6985 13.2308 31.5989 13.2308C24.4993 13.2308 18.744 19.087 18.744 26.3112C18.744 33.5354 24.4993 39.3916 31.5989 39.3916C35.1487 39.3916 38.3624 37.9275 40.6888 35.5605Z" stroke="white" stroke-width="2.438" stroke-linecap="round" stroke-linejoin="round"/>
<path d="M5.34779 13.7824C5.20151 14.0801 4.95074 14.3353 4.65818 14.4841L1.71169 15.9726C0.583246 16.5467 0.583246 18.184 1.71169 18.7581L4.65818 20.2465C4.95074 20.3954 5.20151 20.6506 5.34779 20.9483L6.81059 23.9465C7.37481 25.0948 8.98389 25.0948 9.5481 23.9465L11.0109 20.9483C11.1572 20.6506 11.408 20.3954 11.7005 20.2465L14.647 18.7581C15.7754 18.184 15.7754 16.5467 14.647 15.9726L11.7005 14.4841C11.408 14.3353 11.1572 14.0801 11.0109 13.7824L9.5481 10.7842C8.98389 9.63601 7.37481 9.63601 6.81059 10.7842L5.34779 13.7824Z" fill="#863AF1"/>
<path opacity="0.5" d="M15.2256 2.57709C15.1232 2.78534 14.9595 2.95193 14.7753 3.03524L12.8106 4.03482C12.0534 4.40968 12.0534 5.51339 12.8106 5.88825L14.7753 6.88784C14.98 6.99196 15.1437 7.15857 15.2256 7.34599L16.2079 9.34519C16.5763 10.1157 17.661 10.1157 18.0293 9.34519L19.0117 7.34599C19.1141 7.13773 19.2778 6.97114 19.4621 6.88784L21.4268 5.88825C22.184 5.51339 22.184 4.40968 21.4268 4.03482L19.4621 3.03524C19.2573 2.93111 19.0936 2.7645 19.0117 2.57709L18.0293 0.577891C17.661 -0.19263 16.5763 -0.19263 16.2079 0.577891L15.2256 2.57709Z" fill="#863AF1"/>
</svg>
