<svg width="42" height="42" viewBox="0 0 42 42" fill="none" xmlns="http://www.w3.org/2000/svg">
<path d="M17.2835 27.2998C17.1228 26.677 16.7981 26.1085 16.3432 25.6535C15.8883 25.1987 15.3198 24.874 14.6969 24.7132L3.65425 21.8657C3.46585 21.8122 3.30003 21.6988 3.18196 21.5426C3.06388 21.3864 3 21.1959 3 20.9999C3 20.8041 3.06388 20.6136 3.18196 20.4574C3.30003 20.3012 3.46585 20.1878 3.65425 20.1341L14.6969 17.2849C15.3196 17.1244 15.888 16.7999 16.3428 16.3454C16.7977 15.8908 17.1225 15.3227 17.2835 14.7002L20.1309 3.65743C20.1839 3.46829 20.2973 3.30165 20.4537 3.18295C20.6103 3.06426 20.8012 3 20.9976 3C21.194 3 21.3851 3.06426 21.5416 3.18295C21.698 3.30165 21.8114 3.46829 21.8643 3.65743L24.71 14.7002C24.8707 15.3231 25.1955 15.8915 25.6503 16.3464C26.1052 16.8013 26.6738 17.126 27.2965 17.2867L38.3392 20.1323C38.5291 20.1847 38.6967 20.2981 38.816 20.4547C38.9354 20.6115 39 20.803 39 20.9999C39 21.197 38.9354 21.3885 38.816 21.5453C38.6967 21.7019 38.5291 21.8151 38.3392 21.8675L27.2965 24.7132C26.6738 24.874 26.1052 25.1987 25.6503 25.6535C25.1955 26.1085 24.8707 26.677 24.71 27.2998L21.8625 38.3427C21.8096 38.5317 21.6962 38.6983 21.5398 38.8171C21.3833 38.9357 21.1922 39 20.9958 39C20.7994 39 20.6085 38.9357 20.4519 38.8171C20.2955 38.6983 20.1821 38.5317 20.1291 38.3427L17.2835 27.2998Z" stroke="#863AF1" stroke-width="4.19994" stroke-linecap="round" stroke-linejoin="round"/>
<path d="M35.3956 4.79996V11.9998" stroke="#863AF1" stroke-width="4.19994" stroke-linecap="round" stroke-linejoin="round"/>
<path d="M38.9955 8.39987H31.7957" stroke="#863AF1" stroke-width="4.19994" stroke-linecap="round" stroke-linejoin="round"/>
<path d="M6.59637 29.9993V33.5992" stroke="#863AF1" stroke-width="4.19994" stroke-linecap="round" stroke-linejoin="round"/>
<path d="M8.39635 31.7993H4.79645" stroke="#863AF1" stroke-width="4.19994" stroke-linecap="round" stroke-linejoin="round"/>
</svg>
