<svg width="14" height="12" viewBox="0 0 14 12" fill="none" xmlns="http://www.w3.org/2000/svg">
<path d="M1.58356 5.27942C1.18559 5.27942 0.862981 5.60204 0.86298 6C0.86298 6.39796 1.18559 6.72058 1.58356 6.72058L1.58356 5.27942ZM13.7163 6.50953C13.9977 6.22812 13.9977 5.77188 13.7163 5.49048L9.13059 0.904754C8.84919 0.623352 8.39294 0.623352 8.11154 0.904754C7.83014 1.18616 7.83014 1.6424 8.11154 1.9238L12.1877 6L8.11154 10.0762C7.83014 10.3576 7.83014 10.8138 8.11154 11.0952C8.39294 11.3766 8.84919 11.3766 9.13059 11.0952L13.7163 6.50953ZM1.58356 6.72058L13.2068 6.72058L13.2068 5.27942L1.58356 5.27942L1.58356 6.72058Z" fill="white"/>
</svg>
