<svg width="45" height="58" viewBox="0 0 45 58" fill="none" xmlns="http://www.w3.org/2000/svg">
<path d="M45 55.26C45 56.1928 43.8359 56.6176 43.2351 55.9042L30.3845 40.6441C29.8369 39.9938 30.2992 39 31.1494 39L44 39C44.5523 39 45 39.4477 45 40L45 55.26Z" fill="#D9D9D9"/>
<path fill-rule="evenodd" clip-rule="evenodd" d="M5 0C2.23858 0 0 2.23858 0 5V40C0 42.7614 2.23858 45 5 45H40C42.7614 45 45 42.7614 45 40V5C45 2.23858 42.7614 0 40 0H5ZM36.959 30.6765C37.0041 30.3047 36.6964 30 36.3219 30C35.9474 30 35.6484 30.3049 35.5987 30.6761C35.3421 32.5922 34.001 34.3989 31.7941 35.7687C29.3291 37.2987 25.986 38.1582 22.5 38.1582C19.014 38.1582 15.6709 37.2987 13.2059 35.7687C10.999 34.3989 9.65794 32.5922 9.40134 30.6761C9.35164 30.3049 9.05258 30 8.67808 30C8.30359 30 7.99586 30.3047 8.04099 30.6765C8.30067 32.816 9.78573 34.8363 12.247 36.364C14.9662 38.0518 18.6544 39 22.5 39C26.3456 39 30.0338 38.0518 32.753 36.364C35.2143 34.8363 36.6993 32.816 36.959 30.6765Z" fill="#D9D9D9"/>
</svg>
